<?xml version="1.0" encoding="UTF-8"?>
<svg version="1.1" xmlns="http://www.w3.org/2000/svg" width="512" height="512">
<path d="M0 0 C3.22314687 1.53287586 5.37735598 3.14150688 7.890625 5.6953125 C8.95410156 6.76845703 8.95410156 6.76845703 10.0390625 7.86328125 C10.76867187 8.60964844 11.49828125 9.35601562 12.25 10.125 C12.99507813 10.87910156 13.74015625 11.63320312 14.5078125 12.41015625 C16.3431342 14.26900772 18.1736191 16.13237005 20 18 C17.13182916 23.20870647 13.96413269 28.04607158 10.5 32.875 C9.42699849 34.38275212 8.35408427 35.89056637 7.28125 37.3984375 C6.73597656 38.1625293 6.19070313 38.92662109 5.62890625 39.71386719 C3.07342625 43.30042516 0.53725627 46.90053928 -2 50.5 C-2.99989763 51.91673892 -3.99989788 53.33340542 -5 54.75 C-5.7425 55.801875 -5.7425 55.801875 -6.5 56.875 C-16 70.33333333 -25.5 83.79166667 -35 97.25 C-35.49532227 97.9517334 -35.99064453 98.6534668 -36.50097656 99.37646484 C-37.49761905 100.78832092 -38.49436329 102.20010518 -39.49121094 103.61181641 C-42.04343446 107.22649269 -44.59369476 110.84252918 -47.140625 114.4609375 C-47.91539185 115.56066895 -47.91539185 115.56066895 -48.70581055 116.68261719 C-49.72381259 118.12793866 -50.74092362 119.57388818 -51.75708008 121.02050781 C-53.96518976 124.15592793 -56.18700232 127.2739017 -58.49609375 130.3359375 C-59.21925781 131.29757812 -59.94242188 132.25921875 -60.6875 133.25 C-61.31011719 134.05953125 -61.93273437 134.8690625 -62.57421875 135.703125 C-64.13346344 138.21500412 -64.72013313 140.06622314 -65 143 C-64.07976712 145.83928533 -64.07976712 145.83928533 -62 148 C-59.28152211 149.1081434 -59.28152211 149.1081434 -56 149 C-53.30864486 147.54431743 -51.10737379 146.13230052 -48.6875 144.3125 C-47.99454834 143.81355225 -47.30159668 143.31460449 -46.58764648 142.80053711 C-45.12159993 141.7441866 -43.66050012 140.6809412 -42.20410156 139.61132812 C-39.38552643 137.55078361 -36.52990493 135.5459692 -33.67114258 133.54174805 C-31.53823236 132.04547585 -29.41093897 130.54153446 -27.28515625 129.03515625 C-23.02704881 126.01830992 -18.76396491 123.00855949 -14.5 120 C-13.08331078 119.00003196 -11.66664412 118.00003195 -10.25 117 C-7.41666667 115 -4.58333333 113 -1.75 111 C-1.0489917 110.50516113 -0.3479834 110.01032227 0.37426758 109.50048828 C1.79333958 108.49880957 3.21244775 107.4971821 4.6315918 106.49560547 C8.13675274 104.02170505 11.64131515 101.54696634 15.14453125 99.0703125 C23.58512971 93.10477674 32.04334477 87.16508864 40.51391602 81.2421875 C48.69386796 75.5201327 56.84976983 69.76428196 65 64 C69.63711564 67.90539687 74.15369276 71.89762157 78.5 76.125 C79.04914063 76.63675781 79.59828125 77.14851563 80.1640625 77.67578125 C81.71875 79.1953125 81.71875 79.1953125 84 82 C83.85357804 86.10989741 81.11762215 88.25836802 78.34181976 91.03570366 C77.85035717 91.53152657 77.35889458 92.02734949 76.85253918 92.53819734 C75.19370864 94.20802974 73.52433686 95.86691064 71.8548584 97.52609253 C70.65533049 98.72907508 69.45645767 99.93271115 68.25818682 101.13694584 C64.95531734 104.45238235 61.64310221 107.75834405 58.3293128 111.0628612 C54.76001134 114.62539545 51.19932817 118.19652524 47.63754272 121.76657104 C40.6539462 128.76353406 33.66223031 135.75232949 26.66760761 142.73826824 C20.9818986 148.41720985 15.29911509 154.09906341 9.61842346 159.78302383 C8.81075198 160.59115502 8.00308049 161.3992862 7.17093411 162.23190621 C5.53025651 163.87354298 3.88958565 165.51518648 2.24892145 167.15683664 C-13.15163828 182.56595952 -28.56139444 197.96585924 -43.97428745 213.36264445 C-57.19672578 226.57169147 -70.41129635 239.78856669 -83.62011719 253.01123047 C-98.95299493 268.36016961 -114.29073708 283.70422086 -129.63625097 299.04052746 C-131.27347272 300.67679356 -132.9106882 302.31306593 -134.54789734 303.94934464 C-135.35345614 304.75444061 -136.15901494 305.55953658 -136.98898461 306.38902941 C-142.66268914 312.06014478 -148.33290718 317.73473174 -154.00178528 323.41067123 C-160.91520826 330.33251618 -167.83396734 337.24897397 -174.75957984 344.15862356 C-178.29249258 347.6836611 -181.82298116 351.21103775 -185.34698868 354.74497986 C-188.57551819 357.98247287 -191.81093618 361.21291381 -195.05189961 364.43795814 C-196.22084769 365.6035653 -197.3872965 366.77168568 -198.55092126 367.94260715 C-216.71682441 386.21362432 -216.71682441 386.21362432 -230.13671875 386.37109375 C-231.67779297 386.37302734 -231.67779297 386.37302734 -233.25 386.375 C-234.26191406 386.39949219 -235.27382812 386.42398437 -236.31640625 386.44921875 C-249.47382867 386.50041495 -255.95144257 379.80220657 -265 371 C-265.59615112 370.42310425 -266.19230225 369.8462085 -266.80651855 369.25183105 C-270.69770898 365.4791179 -274.55496411 361.67383884 -278.39306641 357.84716797 C-280.38652351 355.86353327 -282.39042908 353.89084069 -284.39453125 351.91796875 C-303.0842969 333.38731435 -303.0842969 333.38731435 -303.38061523 320.29101562 C-303.32868873 301.41686183 -292.68144422 292.52730281 -280.07276917 279.95251465 C-278.86207279 278.74138167 -277.6515964 277.53002874 -276.44131988 276.3184762 C-273.13011615 273.00504501 -269.81581694 269.69472558 -266.50098765 266.38492203 C-262.92121169 262.80947556 -259.3443375 259.23112818 -255.7671051 255.65313721 C-249.57393048 249.45943893 -243.37893155 243.26757023 -237.18268013 237.07695007 C-228.22400747 228.12641391 -219.26810637 219.17310874 -210.31287336 210.21913129 C-195.78255987 195.69100494 -181.25001588 181.16511189 -166.71606445 166.640625 C-152.59998221 152.53372561 -138.4849535 138.42577346 -124.37133789 124.31640625 C-123.50097425 123.44630533 -122.6306106 122.57620441 -121.7338723 121.67973679 C-117.36740072 117.31457028 -113.00094983 112.94938308 -108.63450921 108.5841856 C-72.42621139 72.38624987 -36.21429158 36.19193919 0 0 Z " fill="#000000" transform="translate(303,126)"/>
<path d="M0 0 C3.66752005 1.5391801 5.98580573 3.75485452 8.765625 6.5703125 C9.65507812 7.46621094 10.54453125 8.36210937 11.4609375 9.28515625 C12.38132812 10.22230469 13.30171875 11.15945312 14.25 12.125 C15.19484856 13.07988637 16.14015633 14.03431859 17.0859375 14.98828125 C19.39518338 17.32109087 21.69963203 19.65844086 24 22 C22.58854539 25.39959317 21.05410941 26.9724933 18.02734375 29.03125 C16.81461792 29.8668042 16.81461792 29.8668042 15.57739258 30.71923828 C14.70622803 31.30688965 13.83506348 31.89454102 12.9375 32.5 C11.10650447 33.75742473 9.27577958 35.01524362 7.4453125 36.2734375 C6.5265332 36.90088867 5.60775391 37.52833984 4.66113281 38.17480469 C0.85166959 40.78760717 -2.91936325 43.45310509 -6.6875 46.125 C-8.07669724 47.10694866 -9.46601989 48.08871992 -10.85546875 49.0703125 C-11.53786621 49.55274414 -12.22026367 50.03517578 -12.92333984 50.53222656 C-15.73854167 52.52199771 -18.55501717 54.50996164 -21.37158203 56.49780273 C-22.7802004 57.49197901 -24.18873038 58.48628053 -25.59716797 59.48071289 C-29.29915453 62.09446159 -33.00229989 64.70654919 -36.70703125 67.31640625 C-37.47789062 67.85974609 -38.24875 68.40308594 -39.04296875 68.96289062 C-40.51788574 70.00244055 -41.99312812 71.04152903 -43.46875 72.08007812 C-44.46841797 72.78487305 -44.46841797 72.78487305 -45.48828125 73.50390625 C-46.10525879 73.93848145 -46.72223633 74.37305664 -47.35791016 74.82080078 C-48.71425264 75.7948023 -50.0395 76.81194776 -51.35546875 77.83984375 C-53 79 -53 79 -55 79 C-53.18997431 74.96303259 -50.63996245 71.43020039 -48.125 67.8125 C-47.6395874 67.1105249 -47.1541748 66.4085498 -46.65405273 65.68530273 C-41.6548425 58.47097901 -36.59018851 51.30288259 -31.51611328 44.14111328 C-29.5065063 41.30306928 -27.50122859 38.46198239 -25.49633789 35.62060547 C-24.5023148 34.211879 -23.50801338 32.80334888 -22.51342773 31.39501953 C-19.9349322 27.74380563 -17.35963056 24.09039399 -14.7890625 20.43359375 C-14.25925781 19.68078125 -13.72945313 18.92796875 -13.18359375 18.15234375 C-12.18259365 16.72986992 -11.18251403 15.30674764 -10.18359375 13.8828125 C-6.877221 9.18720751 -3.46860965 4.57695426 0 0 Z " fill="#000000" transform="translate(333,156)"/>
<path d="M0 0 C3.90851199 1.58431453 6.52367356 4.26635095 9.421875 7.2265625 C9.92672424 7.73424164 10.43157349 8.24192078 10.95172119 8.76498413 C12.55592096 10.38033842 14.15300856 12.00252209 15.75 13.625 C16.83938107 14.72441698 17.9292199 15.82338059 19.01953125 16.921875 C21.68501885 19.6093602 24.34415143 22.30299021 27 25 C25.60652624 28.15204981 23.97514921 30.26171773 21.5234375 32.671875 C20.853125 33.33574219 20.1828125 33.99960938 19.4921875 34.68359375 C18.79351562 35.36550781 18.09484375 36.04742187 17.375 36.75 C16.66859375 37.44738281 15.9621875 38.14476562 15.234375 38.86328125 C13.49401297 40.58012488 11.74915019 42.29211832 10 44 C6.09148801 42.41568547 3.47632644 39.73364905 0.578125 36.7734375 C0.07327576 36.26575836 -0.43157349 35.75807922 -0.95172119 35.23501587 C-2.55592096 33.61966158 -4.15300856 31.99747791 -5.75 30.375 C-6.83938107 29.27558302 -7.9292199 28.17661941 -9.01953125 27.078125 C-11.68501885 24.3906398 -14.34415143 21.69700979 -17 19 C-15.60652624 15.84795019 -13.97514921 13.73828227 -11.5234375 11.328125 C-10.51796875 10.33232422 -10.51796875 10.33232422 -9.4921875 9.31640625 C-8.79351562 8.63449219 -8.09484375 7.95257813 -7.375 7.25 C-6.66859375 6.55261719 -5.9621875 5.85523437 -5.234375 5.13671875 C-3.49401297 3.41987512 -1.74915019 1.70788168 0 0 Z " fill="#000000" transform="translate(370,116)"/>
<path d="M0 0 C3.90851199 1.58431453 6.52367356 4.26635095 9.421875 7.2265625 C9.92672424 7.73424164 10.43157349 8.24192078 10.95172119 8.76498413 C12.55592096 10.38033842 14.15300856 12.00252209 15.75 13.625 C16.83938107 14.72441698 17.9292199 15.82338059 19.01953125 16.921875 C21.68501885 19.6093602 24.34415143 22.30299021 27 25 C25.60652624 28.15204981 23.97514921 30.26171773 21.5234375 32.671875 C20.853125 33.33574219 20.1828125 33.99960938 19.4921875 34.68359375 C18.79351562 35.36550781 18.09484375 36.04742187 17.375 36.75 C16.66859375 37.44738281 15.9621875 38.14476562 15.234375 38.86328125 C13.49401297 40.58012488 11.74915019 42.29211832 10 44 C6.09148801 42.41568547 3.47632644 39.73364905 0.578125 36.7734375 C0.07327576 36.26575836 -0.43157349 35.75807922 -0.95172119 35.23501587 C-2.55592096 33.61966158 -4.15300856 31.99747791 -5.75 30.375 C-6.83938107 29.27558302 -7.9292199 28.17661941 -9.01953125 27.078125 C-11.68501885 24.3906398 -14.34415143 21.69700979 -17 19 C-15.60652624 15.84795019 -13.97514921 13.73828227 -11.5234375 11.328125 C-10.51796875 10.33232422 -10.51796875 10.33232422 -9.4921875 9.31640625 C-8.79351562 8.63449219 -8.09484375 7.95257813 -7.375 7.25 C-6.66859375 6.55261719 -5.9621875 5.85523437 -5.234375 5.13671875 C-3.49401297 3.41987512 -1.74915019 1.70788168 0 0 Z " fill="#000000" transform="translate(399,87)"/>
<path d="M0 0 C3.15357543 1.52009219 5.35935685 3.89167302 7.76586914 6.37207031 C8.55643707 7.16900551 8.55643707 7.16900551 9.36297607 7.98204041 C11.04091601 9.67674231 12.70811142 11.38158623 14.37524414 13.08691406 C15.51257159 14.23929152 16.6505848 15.39099258 17.78930664 16.54199219 C20.57596406 19.36168591 23.35303206 22.19051995 26.12524414 25.02441406 C22.36596607 29.47692738 18.54660058 33.82988119 14.50024414 38.02441406 C14.03618164 38.52585938 13.57211914 39.02730469 13.09399414 39.54394531 C11.71118164 40.96191406 11.71118164 40.96191406 9.12524414 43.02441406 C4.93424869 42.8878428 2.46119733 39.82795875 -0.33178711 37.03613281 C-1.09261848 36.28672173 -1.09261848 36.28672173 -1.86882019 35.52217102 C-2.93576892 34.46600652 -3.99879038 33.40586177 -5.05810547 32.34204102 C-6.68526039 30.71391073 -8.33258855 29.10828737 -9.98217773 27.50292969 C-11.01667871 26.4736335 -12.04992661 25.44307604 -13.08178711 24.41113281 C-13.5774971 23.93181808 -14.07320709 23.45250336 -14.5839386 22.95866394 C-17.87422181 19.59998352 -17.87422181 19.59998352 -17.87670898 16.91943359 C-15.84272688 13.07251131 -12.61890115 10.25712195 -9.56225586 7.21191406 C-8.88485352 6.50615234 -8.20745117 5.80039062 -7.50952148 5.07324219 C-6.85016602 4.41130859 -6.19081055 3.749375 -5.51147461 3.06738281 C-4.91036865 2.45918701 -4.3092627 1.85099121 -3.68994141 1.22436523 C-1.87475586 0.02441406 -1.87475586 0.02441406 0 0 Z " fill="#000000" transform="translate(457.874755859375,29.9755859375)"/>
<path d="M0 0 C3.04348697 1.44265079 5.21758711 3.63799678 7.57080078 5.99023438 C8.0780217 6.48984177 8.58524261 6.98944916 9.10783386 7.50419617 C10.17478259 8.56036067 11.23780406 9.62050542 12.29711914 10.68432617 C13.92427406 12.31245646 15.57160222 13.91807982 17.22119141 15.5234375 C18.25569238 16.55273369 19.28894028 17.58329115 20.32080078 18.61523438 C20.81651077 19.0945491 21.31222076 19.57386383 21.82295227 20.06770325 C25.11323548 23.42638367 25.11323548 23.42638367 25.11572266 26.10693359 C23.08174056 29.95385588 19.85791482 32.76924524 16.80126953 35.81445312 C16.12386719 36.52021484 15.44646484 37.22597656 14.74853516 37.953125 C13.75950195 38.94602539 13.75950195 38.94602539 12.75048828 39.95898438 C12.14938232 40.56718018 11.54827637 41.17537598 10.92895508 41.80200195 C9.11376953 43.00195312 9.11376953 43.00195312 7.22753906 43.00390625 C4.18405209 41.56125546 2.00995195 39.36590947 -0.34326172 37.01367188 C-1.10409309 36.26426079 -1.10409309 36.26426079 -1.8802948 35.49971008 C-2.94724353 34.44354558 -4.01026499 33.38340083 -5.06958008 32.31958008 C-6.696735 30.69144979 -8.34406316 29.08582643 -9.99365234 27.48046875 C-11.02815332 26.45117256 -12.06140122 25.4206151 -13.09326172 24.38867188 C-13.58897171 23.90935715 -14.0846817 23.43004242 -14.59541321 22.936203 C-17.88569642 19.57752258 -17.88569642 19.57752258 -17.88818359 16.89697266 C-15.85420149 13.05005037 -12.63037575 10.23466101 -9.57373047 7.18945312 C-8.89632813 6.48369141 -8.21892578 5.77792969 -7.52099609 5.05078125 C-6.86164063 4.38884766 -6.20228516 3.72691406 -5.52294922 3.04492188 C-4.92184326 2.43672607 -4.3207373 1.82853027 -3.70141602 1.2019043 C-1.88623047 0.00195313 -1.88623047 0.00195313 0 0 Z " fill="#000000" transform="translate(486.88623046875,0.998046875)"/>
<path d="M0 0 C6.18134869 5.10448822 11.79822878 10.68294942 17.4375 16.375 C18.35982422 17.30183594 19.28214844 18.22867188 20.23242188 19.18359375 C22.49058625 21.45345846 24.74636942 23.72563538 27 26 C23.22369848 30.51572304 19.32390572 34.81275974 15.125 38.9375 C14.62742187 39.43056641 14.12984375 39.92363281 13.6171875 40.43164062 C12.41379715 41.62345992 11.20724635 42.81208678 10 44 C6.09148801 42.41568547 3.47632644 39.73364905 0.578125 36.7734375 C0.07327576 36.26575836 -0.43157349 35.75807922 -0.95172119 35.23501587 C-2.55592096 33.61966158 -4.15300856 31.99747791 -5.75 30.375 C-6.83938107 29.27558302 -7.9292199 28.17661941 -9.01953125 27.078125 C-11.68501885 24.3906398 -14.34415143 21.69700979 -17 19 C-15.60652624 15.84795019 -13.97514921 13.73828227 -11.5234375 11.328125 C-10.51796875 10.33232422 -10.51796875 10.33232422 -9.4921875 9.31640625 C-8.79351562 8.63449219 -8.09484375 7.95257813 -7.375 7.25 C-6.66859375 6.55261719 -5.9621875 5.85523438 -5.234375 5.13671875 C-3.49401297 3.41987512 -1.74915019 1.70788168 0 0 Z " fill="#000000" transform="translate(428,58)"/>
</svg>
