<?xml version="1.0" encoding="UTF-8"?>
<svg version="1.1" xmlns="http://www.w3.org/2000/svg" width="580" height="577">
<path d="M0 0 C0.98672699 -0.00701431 1.97345398 -0.01402863 2.99008179 -0.02125549 C6.15749726 -0.03866982 9.32472591 -0.04510784 12.4921875 -0.046875 C13.57298584 -0.04754974 14.65378418 -0.04822449 15.76733398 -0.04891968 C31.19286166 -0.03358815 46.17577972 0.29370927 61.3671875 3.203125 C62.79998047 3.46053467 62.79998047 3.46053467 64.26171875 3.72314453 C129.63556384 15.58328277 194.27591119 49.57656274 236.05249023 102.3034668 C238.21835186 105.01667622 240.4317471 107.6825162 242.65625 110.34765625 C264.75789604 137.35876257 280.28606255 168.98500764 291.0546875 202.015625 C291.40635986 203.08997803 291.75803223 204.16433105 292.12036133 205.27124023 C292.43255615 206.26583252 292.74475098 207.2604248 293.06640625 208.28515625 C293.34315186 209.16405518 293.61989746 210.0429541 293.9050293 210.94848633 C294.3671875 213.203125 294.3671875 213.203125 293.3671875 216.203125 C291.3046875 216.890625 291.3046875 216.890625 289.3671875 217.203125 C289.6971875 218.523125 290.0271875 219.843125 290.3671875 221.203125 C290.9859375 220.996875 291.6046875 220.790625 292.2421875 220.578125 C292.9434375 220.454375 293.6446875 220.330625 294.3671875 220.203125 C296.86224712 222.69818462 296.72667126 223.87641388 296.9921875 227.328125 C297.06695313 228.23820313 297.14171875 229.14828125 297.21875 230.0859375 C297.26773438 230.78460938 297.31671875 231.48328125 297.3671875 232.203125 C296.2328125 232.615625 295.0984375 233.028125 293.9296875 233.453125 C292.7540625 234.030625 291.5784375 234.608125 290.3671875 235.203125 C290.0371875 236.523125 289.7071875 237.843125 289.3671875 239.203125 C292.3371875 238.873125 295.3071875 238.543125 298.3671875 238.203125 C299.85770521 243.05670157 300.84951077 247.71092148 301.4921875 252.765625 C301.65976562 254.02503906 301.82734375 255.28445313 302 256.58203125 C302.49175044 262.77076288 302.3671875 268.99488711 302.3671875 275.203125 C111.2971875 275.203125 -79.7728125 275.203125 -276.6328125 275.203125 C-273.6328125 245.203125 -273.6328125 245.203125 -271.6328125 236.203125 C-269.25 234.44921875 -269.25 234.44921875 -266.5078125 233.640625 C-265.59773438 233.35058594 -264.68765625 233.06054688 -263.75 232.76171875 C-263.05132812 232.57738281 -262.35265625 232.39304688 -261.6328125 232.203125 C-261.6328125 231.213125 -261.6328125 230.223125 -261.6328125 229.203125 C-264.6028125 229.533125 -267.5728125 229.863125 -270.6328125 230.203125 C-269.68184928 219.58403568 -269.68184928 219.58403568 -267.6328125 216.203125 C-265.0078125 214.890625 -265.0078125 214.890625 -262.6328125 214.203125 C-262.9628125 213.543125 -263.2928125 212.883125 -263.6328125 212.203125 C-265.07229207 209.32416585 -264.10387492 207.93904354 -263.11328125 204.91015625 C-262.75580811 203.81662842 -262.39833496 202.72310059 -262.0300293 201.59643555 C-261.43121948 199.82393433 -261.43121948 199.82393433 -260.8203125 198.015625 C-260.41014893 196.79979736 -259.99998535 195.58396973 -259.57739258 194.33129883 C-246.03342279 154.95702546 -224.37989636 116.976692 -194.26171875 87.83203125 C-192.48595069 86.12270152 -192.48595069 86.12270152 -190.6328125 83.640625 C-188.30818052 80.80747977 -185.72694748 78.57466836 -182.94140625 76.203125 C-180.4413344 74.03724212 -178.04487101 71.77897013 -175.6328125 69.515625 C-129.35951919 27.39670195 -62.6427274 0.29860491 0 0 Z M-237.8203125 213.953125 C-238.63951172 214.20578125 -239.45871094 214.4584375 -240.30273438 214.71875 C-241.08583984 214.9765625 -241.86894531 215.234375 -242.67578125 215.5 C-243.38758545 215.73041992 -244.09938965 215.96083984 -244.83276367 216.19824219 C-247.12645724 217.4787037 -247.67908809 218.80381051 -248.6328125 221.203125 C-239.84035036 220.73210024 -231.92666047 217.96095666 -223.6328125 215.203125 C-223.6328125 213.883125 -223.6328125 212.563125 -223.6328125 211.203125 C-228.71538091 210.74950835 -233.06708013 212.37503668 -237.8203125 213.953125 Z M-200.3828125 214.953125 C-201.25808594 215.20578125 -202.13335937 215.4584375 -203.03515625 215.71875 C-204.28232422 216.10546875 -204.28232422 216.10546875 -205.5546875 216.5 C-206.31362305 216.73041992 -207.07255859 216.96083984 -207.85449219 217.19824219 C-209.8426495 218.06612055 -209.8426495 218.06612055 -210.38769531 220.30957031 C-210.46858398 220.93444336 -210.54947266 221.55931641 -210.6328125 222.203125 C-207.17397246 223.35607168 -206.16153526 223.00256388 -202.74609375 221.98828125 C-201.80830078 221.71435547 -200.87050781 221.44042969 -199.90429688 221.15820312 C-198.92783203 220.86365234 -197.95136719 220.56910156 -196.9453125 220.265625 C-195.95724609 219.97494141 -194.96917969 219.68425781 -193.95117188 219.38476562 C-191.5093429 218.66519283 -189.07015768 217.93771507 -186.6328125 217.203125 C-186.3028125 215.553125 -185.9728125 213.903125 -185.6328125 212.203125 C-190.96380667 212.02660201 -195.33697533 213.37961056 -200.3828125 214.953125 Z M-161.3203125 214.578125 C-162.09181641 214.79984375 -162.86332031 215.0215625 -163.65820312 215.25 C-168.04879385 216.49835896 -168.04879385 216.49835896 -171.6328125 219.203125 C-171.3142948 221.31133297 -171.3142948 221.31133297 -170.6328125 223.203125 C-162.93548146 221.30901736 -155.27106593 219.3231914 -147.6328125 217.203125 C-147.04211236 215.25709226 -147.04211236 215.25709226 -146.6328125 213.203125 C-147.63768429 211.98831183 -147.63768429 211.98831183 -149.65234375 211.9921875 C-153.73416901 212.28107159 -157.41527688 213.39899635 -161.3203125 214.578125 Z M-123.3828125 214.953125 C-124.25808594 215.20578125 -125.13335937 215.4584375 -126.03515625 215.71875 C-127.28232422 216.10546875 -127.28232422 216.10546875 -128.5546875 216.5 C-129.31362305 216.73041992 -130.07255859 216.96083984 -130.85449219 217.19824219 C-132.8426495 218.06612055 -132.8426495 218.06612055 -133.38769531 220.30957031 C-133.46858398 220.93444336 -133.54947266 221.55931641 -133.6328125 222.203125 C-130.17397246 223.35607168 -129.16153526 223.00256388 -125.74609375 221.98828125 C-124.80830078 221.71435547 -123.87050781 221.44042969 -122.90429688 221.15820312 C-121.92783203 220.86365234 -120.95136719 220.56910156 -119.9453125 220.265625 C-118.95724609 219.97494141 -117.96917969 219.68425781 -116.95117188 219.38476562 C-114.5093429 218.66519283 -112.07015768 217.93771507 -109.6328125 217.203125 C-109.3028125 215.553125 -108.9728125 213.903125 -108.6328125 212.203125 C-113.96380667 212.02660201 -118.33697533 213.37961056 -123.3828125 214.953125 Z M-85.3828125 215.015625 C-86.25808594 215.27666016 -87.13335937 215.53769531 -88.03515625 215.80664062 C-88.86660156 216.06767578 -89.69804687 216.32871094 -90.5546875 216.59765625 C-91.31362305 216.83331299 -92.07255859 217.06896973 -92.85449219 217.31176758 C-94.99914355 218.12477177 -94.99914355 218.12477177 -95.6328125 221.203125 C-93.33709743 222.63047517 -92.10012382 223.25697947 -89.37451172 222.94287109 C-86.74653716 222.17043297 -84.12228568 221.39537899 -81.5078125 220.578125 C-80.58871094 220.31644531 -79.66960937 220.05476562 -78.72265625 219.78515625 C-77.84480469 219.51832031 -76.96695313 219.25148437 -76.0625 218.9765625 C-74.85956299 218.61183838 -74.85956299 218.61183838 -73.63232422 218.23974609 C-71.16263681 216.95936847 -70.61017225 215.75640312 -69.6328125 213.203125 C-70.6660773 211.94885896 -70.6660773 211.94885896 -72.90722656 212.06518555 C-77.28876618 212.28693133 -81.22241691 213.69639911 -85.3828125 215.015625 Z M-41.49609375 213.515625 C-42.38232422 213.78632813 -43.26855469 214.05703125 -44.18164062 214.3359375 C-45.09365234 214.62210938 -46.00566406 214.90828125 -46.9453125 215.203125 C-48.34233398 215.63238281 -48.34233398 215.63238281 -49.76757812 216.0703125 C-52.05798515 216.77505312 -54.34620912 217.48615805 -56.6328125 218.203125 C-56.3028125 219.853125 -55.9728125 221.503125 -55.6328125 223.203125 C-43.43564098 220.34512285 -43.43564098 220.34512285 -31.6328125 216.203125 C-31.6328125 214.883125 -31.6328125 213.563125 -31.6328125 212.203125 C-35.21183793 212.06943378 -38.0800928 212.45776664 -41.49609375 213.515625 Z M-9.3828125 215.015625 C-10.25808594 215.27666016 -11.13335937 215.53769531 -12.03515625 215.80664062 C-12.86660156 216.06767578 -13.69804687 216.32871094 -14.5546875 216.59765625 C-15.31362305 216.83331299 -16.07255859 217.06896973 -16.85449219 217.31176758 C-18.99914355 218.12477177 -18.99914355 218.12477177 -19.6328125 221.203125 C-19.3028125 221.863125 -18.9728125 222.523125 -18.6328125 223.203125 C-6.43564098 220.34512285 -6.43564098 220.34512285 5.3671875 216.203125 C5.3671875 214.883125 5.3671875 213.563125 5.3671875 212.203125 C0.02260671 212.02084294 -4.33396977 213.41468012 -9.3828125 215.015625 Z M29.6796875 214.578125 C28.90818359 214.79984375 28.13667969 215.0215625 27.34179688 215.25 C22.95120615 216.49835896 22.95120615 216.49835896 19.3671875 219.203125 C19.6857052 221.31133297 19.6857052 221.31133297 20.3671875 223.203125 C24.37485946 222.23219416 28.37229032 221.22529353 32.3671875 220.203125 C33.34171875 219.96335938 34.31625 219.72359375 35.3203125 219.4765625 C36.64289063 219.12464844 36.64289063 219.12464844 37.9921875 218.765625 C38.78882813 218.56066406 39.58546875 218.35570312 40.40625 218.14453125 C42.8943348 216.95005229 43.40155213 215.73142836 44.3671875 213.203125 C43.36231571 211.98831183 43.36231571 211.98831183 41.34765625 211.9921875 C37.26583099 212.28107159 33.58472312 213.39899635 29.6796875 214.578125 Z M68.6796875 214.640625 C67.52243164 214.98577148 67.52243164 214.98577148 66.34179688 215.33789062 C62.2673874 216.5421707 62.2673874 216.5421707 58.3671875 218.203125 C58.71505458 220.17849245 58.71505458 220.17849245 59.3671875 222.203125 C62.06612931 223.5525959 63.08837481 222.87187071 65.9375 221.98828125 C66.83339844 221.71435547 67.72929687 221.44042969 68.65234375 221.15820312 C69.58949219 220.86365234 70.52664063 220.56910156 71.4921875 220.265625 C72.90951172 219.82959961 72.90951172 219.82959961 74.35546875 219.38476562 C76.69480763 218.66406021 79.03182671 217.93659894 81.3671875 217.203125 C81.6971875 215.553125 82.0271875 213.903125 82.3671875 212.203125 C77.47044956 211.82194181 73.29895624 213.2184074 68.6796875 214.640625 Z M106.6796875 214.578125 C105.90818359 214.79984375 105.13667969 215.0215625 104.34179688 215.25 C99.95120615 216.49835896 99.95120615 216.49835896 96.3671875 219.203125 C96.6971875 220.523125 97.0271875 221.843125 97.3671875 223.203125 C108.2571875 220.233125 108.2571875 220.233125 119.3671875 217.203125 C119.6971875 215.553125 120.0271875 213.903125 120.3671875 212.203125 C115.48309917 211.83267519 111.29755697 213.18375559 106.6796875 214.578125 Z M144.6796875 214.578125 C143.90818359 214.79984375 143.13667969 215.0215625 142.34179688 215.25 C137.95120615 216.49835896 137.95120615 216.49835896 134.3671875 219.203125 C134.6857052 221.31133297 134.6857052 221.31133297 135.3671875 223.203125 C143.06451854 221.30901736 150.72893407 219.3231914 158.3671875 217.203125 C158.95788764 215.25709226 158.95788764 215.25709226 159.3671875 213.203125 C158.36231571 211.98831183 158.36231571 211.98831183 156.34765625 211.9921875 C152.26583099 212.28107159 148.58472312 213.39899635 144.6796875 214.578125 Z M187.72265625 213.515625 C186.88154297 213.78632813 186.04042969 214.05703125 185.17382812 214.3359375 C184.30951172 214.62210938 183.44519531 214.90828125 182.5546875 215.203125 C181.67103516 215.48929688 180.78738281 215.77546875 179.87695312 216.0703125 C177.70483113 216.7747845 175.53512024 217.48588548 173.3671875 218.203125 C173.6971875 219.853125 174.0271875 221.503125 174.3671875 223.203125 C185.2571875 220.233125 185.2571875 220.233125 196.3671875 217.203125 C196.6971875 215.553125 197.0271875 213.903125 197.3671875 212.203125 C193.84774597 212.07247288 191.06575494 212.42400094 187.72265625 213.515625 Z M225.72265625 213.515625 C224.88154297 213.78632813 224.04042969 214.05703125 223.17382812 214.3359375 C222.30951172 214.62210938 221.44519531 214.90828125 220.5546875 215.203125 C219.67103516 215.48929688 218.78738281 215.77546875 217.87695312 216.0703125 C215.70483113 216.7747845 213.53512024 217.48588548 211.3671875 218.203125 C211.6971875 219.853125 212.0271875 221.503125 212.3671875 223.203125 C216.37485946 222.23219416 220.37229032 221.22529353 224.3671875 220.203125 C225.34171875 219.96335938 226.31625 219.72359375 227.3203125 219.4765625 C228.64289063 219.12464844 228.64289063 219.12464844 229.9921875 218.765625 C230.78882813 218.56066406 231.58546875 218.35570312 232.40625 218.14453125 C234.8943348 216.95005229 235.40155213 215.73142836 236.3671875 213.203125 C235.33408988 211.94976283 235.33408988 211.94976283 233.0949707 212.05859375 C230.3889419 212.20197235 228.29007102 212.67728548 225.72265625 213.515625 Z M259.7421875 214.453125 C258.5975 214.77990234 258.5975 214.77990234 257.4296875 215.11328125 C253.5540851 216.27596197 251.11806277 217.12291209 248.3671875 220.203125 C248.6971875 221.193125 249.0271875 222.183125 249.3671875 223.203125 C257.06451854 221.30901736 264.72893407 219.3231914 272.3671875 217.203125 C272.6971875 215.883125 273.0271875 214.563125 273.3671875 213.203125 C268.3928311 211.57803645 264.54915856 212.96837797 259.7421875 214.453125 Z M-238.0078125 232.203125 C-239.25498047 232.63238281 -239.25498047 232.63238281 -240.52734375 233.0703125 C-242.56533924 233.77306956 -244.59948169 234.48698333 -246.6328125 235.203125 C-246.28494542 237.17849245 -246.28494542 237.17849245 -245.6328125 239.203125 C-241.89934787 241.06985731 -237.4594433 238.61174377 -233.6328125 237.453125 C-232.7046875 237.18757812 -231.7765625 236.92203125 -230.8203125 236.6484375 C-229.9334375 236.38289062 -229.0465625 236.11734375 -228.1328125 235.84375 C-227.318125 235.60172852 -226.5034375 235.35970703 -225.6640625 235.11035156 C-223.28979534 234.26656555 -223.28979534 234.26656555 -221.6328125 231.203125 C-221.9628125 230.543125 -222.2928125 229.883125 -222.6328125 229.203125 C-228.28951279 228.76376964 -232.762952 230.34609305 -238.0078125 232.203125 Z M-198.4453125 231.703125 C-199.62770508 232.06083984 -199.62770508 232.06083984 -200.83398438 232.42578125 C-202.76879852 233.01208857 -204.7010696 233.60677659 -206.6328125 234.203125 C-206.9628125 235.853125 -207.2928125 237.503125 -207.6328125 239.203125 C-199.35832249 238.77513414 -192.29981362 236.15868304 -184.6328125 233.203125 C-184.6328125 231.883125 -184.6328125 230.563125 -184.6328125 229.203125 C-189.57126257 228.80725726 -193.79099234 230.25962252 -198.4453125 231.703125 Z M-160.5078125 232.203125 C-161.38695312 232.48929688 -162.26609375 232.77546875 -163.171875 233.0703125 C-165.32821126 233.77346563 -167.48157351 234.48455894 -169.6328125 235.203125 C-169.6328125 236.523125 -169.6328125 237.843125 -169.6328125 239.203125 C-165.06945746 240.72424335 -161.59657657 238.89903966 -157.1328125 237.453125 C-155.83150391 237.05480469 -155.83150391 237.05480469 -154.50390625 236.6484375 C-153.66988281 236.38289062 -152.83585937 236.11734375 -151.9765625 235.84375 C-151.21537109 235.60172852 -150.45417969 235.35970703 -149.66992188 235.11035156 C-147.42938035 234.1125265 -146.16844267 233.10618337 -144.6328125 231.203125 C-144.6328125 230.543125 -144.6328125 229.883125 -144.6328125 229.203125 C-150.39928333 228.74936992 -155.12067286 230.40200301 -160.5078125 232.203125 Z M-123.5078125 232.203125 C-124.38695312 232.48929688 -125.26609375 232.77546875 -126.171875 233.0703125 C-128.32821126 233.77346563 -130.48157351 234.48455894 -132.6328125 235.203125 C-132.28494542 237.17849245 -132.28494542 237.17849245 -131.6328125 239.203125 C-128.82016093 240.60945078 -127.57993809 239.73752821 -124.625 238.76953125 C-123.63886719 238.45048828 -122.65273437 238.13144531 -121.63671875 237.80273438 C-120.08791016 237.28936523 -120.08791016 237.28936523 -118.5078125 236.765625 C-116.94740234 236.25805664 -116.94740234 236.25805664 -115.35546875 235.74023438 C-112.77901741 234.9011149 -110.20501714 234.05515594 -107.6328125 233.203125 C-107.6328125 231.883125 -107.6328125 230.563125 -107.6328125 229.203125 C-113.39928333 228.74936992 -118.12067286 230.40200301 -123.5078125 232.203125 Z M-84.0078125 231.703125 C-84.83925781 231.94160156 -85.67070312 232.18007812 -86.52734375 232.42578125 C-88.56453826 233.01118197 -90.59896799 233.6061895 -92.6328125 234.203125 C-92.9628125 235.853125 -93.2928125 237.503125 -93.6328125 239.203125 C-87.98412189 238.81356013 -82.68649145 237.85560943 -77.1953125 236.453125 C-76.00035156 236.14890625 -74.80539063 235.8446875 -73.57421875 235.53125 C-70.43147024 234.47227951 -70.43147024 234.47227951 -69.22265625 231.5625 C-69.02800781 230.78390625 -68.83335937 230.0053125 -68.6328125 229.203125 C-74.15390927 228.84577246 -78.77643897 230.15957779 -84.0078125 231.703125 Z M-45.8828125 231.453125 C-46.60210937 231.65808594 -47.32140625 231.86304688 -48.0625 232.07421875 C-52.2112654 233.32431595 -52.2112654 233.32431595 -55.1171875 236.375 C-55.28734375 236.97828125 -55.4575 237.5815625 -55.6328125 238.203125 C-52.92893718 240.47977718 -52.92893718 240.47977718 -50.48803711 239.92700195 C-49.67858643 239.68425537 -48.86913574 239.44150879 -48.03515625 239.19140625 C-47.15150391 238.92779297 -46.26785156 238.66417969 -45.35742188 238.39257812 C-44.43767578 238.10318359 -43.51792969 237.81378906 -42.5703125 237.515625 C-41.64669922 237.24556641 -40.72308594 236.97550781 -39.77148438 236.69726562 C-34.32751565 235.24204925 -34.32751565 235.24204925 -30.6328125 231.203125 C-30.9628125 230.543125 -31.2928125 229.883125 -31.6328125 229.203125 C-36.81291412 228.9099117 -41.00241316 229.92464828 -45.8828125 231.453125 Z M-6.9453125 231.703125 C-7.78126953 231.94160156 -8.61722656 232.18007812 -9.47851562 232.42578125 C-11.53162684 233.01238445 -13.58245527 233.60696713 -15.6328125 234.203125 C-15.9628125 235.853125 -16.2928125 237.503125 -16.6328125 239.203125 C-12.90856629 241.0652481 -8.51685026 238.6596862 -4.6953125 237.515625 C-3.77556641 237.25845703 -2.85582031 237.00128906 -1.90820312 236.73632812 C-0.58272461 236.3428418 -0.58272461 236.3428418 0.76953125 235.94140625 C1.57898193 235.70462158 2.38843262 235.46783691 3.22241211 235.22387695 C5.79980255 233.99723274 6.84368157 232.57932802 8.3671875 230.203125 C7.36664509 228.9941819 7.36664509 228.9941819 5.38671875 228.984375 C1.09797646 229.29507302 -2.82959228 230.50121775 -6.9453125 231.703125 Z M31.6171875 231.453125 C30.85019531 231.65808594 30.08320313 231.86304688 29.29296875 232.07421875 C24.93917055 233.27254841 24.93917055 233.27254841 21.8515625 236.375 C21.69171875 236.97828125 21.531875 237.5815625 21.3671875 238.203125 C21.6971875 238.533125 22.0271875 238.863125 22.3671875 239.203125 C29.77071856 238.76762317 41.03405782 237.53625468 46.3671875 232.203125 C46.3671875 231.213125 46.3671875 230.223125 46.3671875 229.203125 C41.06431449 228.89913865 36.64807792 229.9775122 31.6171875 231.453125 Z M69.4921875 231.703125 C68.7084375 231.94160156 67.9246875 232.18007812 67.1171875 232.42578125 C65.1982475 233.01082393 63.28238896 233.60595751 61.3671875 234.203125 C61.0371875 235.853125 60.7071875 237.503125 60.3671875 239.203125 C64.00478946 241.02192598 68.09784941 238.64236813 71.8046875 237.453125 C73.11276367 237.05480469 73.11276367 237.05480469 74.44726562 236.6484375 C75.28580078 236.38289062 76.12433594 236.11734375 76.98828125 235.84375 C78.13961548 235.48071777 78.13961548 235.48071777 79.31420898 235.11035156 C81.5671253 234.11477099 82.82686927 233.11541338 84.3671875 231.203125 C84.3671875 230.543125 84.3671875 229.883125 84.3671875 229.203125 C78.96542522 228.85796447 74.57700106 230.10873431 69.4921875 231.703125 Z M107.9921875 231.703125 C107.16074219 231.94160156 106.32929688 232.18007812 105.47265625 232.42578125 C103.43546174 233.01118197 101.40103201 233.6061895 99.3671875 234.203125 C99.0371875 235.853125 98.7071875 237.503125 98.3671875 239.203125 C104.16234038 238.90337571 109.31946469 237.76967775 114.8046875 235.890625 C115.99964844 235.48199219 117.19460938 235.07335937 118.42578125 234.65234375 C121.45585936 233.47074159 121.45585936 233.47074159 122.77734375 231.03515625 C122.97199219 230.43058594 123.16664063 229.82601562 123.3671875 229.203125 C117.84609073 228.84577246 113.22356103 230.15957779 107.9921875 231.703125 Z M145.6171875 231.453125 C144.85019531 231.65808594 144.08320313 231.86304688 143.29296875 232.07421875 C138.93917055 233.27254841 138.93917055 233.27254841 135.8515625 236.375 C135.69171875 236.97828125 135.531875 237.5815625 135.3671875 238.203125 C135.6971875 238.533125 136.0271875 238.863125 136.3671875 239.203125 C143.77071856 238.76762317 155.03405782 237.53625468 160.3671875 232.203125 C160.3671875 231.213125 160.3671875 230.223125 160.3671875 229.203125 C155.06431449 228.89913865 150.64807792 229.9775122 145.6171875 231.453125 Z M183.4921875 231.703125 C182.7084375 231.94160156 181.9246875 232.18007812 181.1171875 232.42578125 C179.1982475 233.01082393 177.28238896 233.60595751 175.3671875 234.203125 C175.0371875 235.853125 174.7071875 237.503125 174.3671875 239.203125 C177.0406342 240.53984835 178.035928 239.90612367 180.8671875 239.05859375 C181.7540625 238.79369141 182.6409375 238.52878906 183.5546875 238.25585938 C184.946875 237.82756836 184.946875 237.82756836 186.3671875 237.390625 C187.2953125 237.11669922 188.2234375 236.84277344 189.1796875 236.56054688 C194.23189273 235.19463819 194.23189273 235.19463819 198.3671875 232.203125 C198.3671875 231.213125 198.3671875 230.223125 198.3671875 229.203125 C192.96542522 228.85796447 188.57700106 230.10873431 183.4921875 231.703125 Z M222.6171875 231.453125 C221.85019531 231.65808594 221.08320313 231.86304688 220.29296875 232.07421875 C215.93917055 233.27254841 215.93917055 233.27254841 212.8515625 236.375 C212.69171875 236.97828125 212.531875 237.5815625 212.3671875 238.203125 C212.6971875 238.533125 213.0271875 238.863125 213.3671875 239.203125 C218.64263506 238.89280456 223.62284204 237.75269163 228.7421875 236.453125 C229.94617188 236.14890625 231.15015625 235.8446875 232.390625 235.53125 C235.56664784 234.47859546 235.56664784 234.47859546 236.78125 231.5625 C236.97460938 230.78390625 237.16796875 230.0053125 237.3671875 229.203125 C232.06431449 228.89913865 227.64807792 229.9775122 222.6171875 231.453125 Z M260.4921875 231.703125 C259.7084375 231.94160156 258.9246875 232.18007812 258.1171875 232.42578125 C256.1982475 233.01082393 254.28238896 233.60595751 252.3671875 234.203125 C252.0371875 235.853125 251.7071875 237.503125 251.3671875 239.203125 C254.0406342 240.53984835 255.035928 239.90612367 257.8671875 239.05859375 C258.7540625 238.79369141 259.6409375 238.52878906 260.5546875 238.25585938 C261.946875 237.82756836 261.946875 237.82756836 263.3671875 237.390625 C264.2953125 237.11669922 265.2234375 236.84277344 266.1796875 236.56054688 C271.23189273 235.19463819 271.23189273 235.19463819 275.3671875 232.203125 C275.3671875 231.213125 275.3671875 230.223125 275.3671875 229.203125 C269.96542522 228.85796447 265.57700106 230.10873431 260.4921875 231.703125 Z M-260.6328125 257.203125 C-260.6328125 258.853125 -260.6328125 260.503125 -260.6328125 262.203125 C-257.0028125 262.203125 -253.3728125 262.203125 -249.6328125 262.203125 C-249.6328125 260.553125 -249.6328125 258.903125 -249.6328125 257.203125 C-253.2628125 257.203125 -256.8928125 257.203125 -260.6328125 257.203125 Z M-236.6328125 257.203125 C-236.6328125 258.853125 -236.6328125 260.503125 -236.6328125 262.203125 C-233.0028125 262.203125 -229.3728125 262.203125 -225.6328125 262.203125 C-225.6328125 260.553125 -225.6328125 258.903125 -225.6328125 257.203125 C-229.2628125 257.203125 -232.8928125 257.203125 -236.6328125 257.203125 Z M-212.6328125 257.203125 C-212.6328125 258.853125 -212.6328125 260.503125 -212.6328125 262.203125 C-209.0028125 262.203125 -205.3728125 262.203125 -201.6328125 262.203125 C-201.6328125 260.553125 -201.6328125 258.903125 -201.6328125 257.203125 C-205.2628125 257.203125 -208.8928125 257.203125 -212.6328125 257.203125 Z M-187.6328125 257.203125 C-187.6328125 258.853125 -187.6328125 260.503125 -187.6328125 262.203125 C-184.0028125 262.203125 -180.3728125 262.203125 -176.6328125 262.203125 C-176.6328125 260.553125 -176.6328125 258.903125 -176.6328125 257.203125 C-180.2628125 257.203125 -183.8928125 257.203125 -187.6328125 257.203125 Z M-163.6328125 257.203125 C-163.6328125 258.853125 -163.6328125 260.503125 -163.6328125 262.203125 C-160.0028125 262.203125 -156.3728125 262.203125 -152.6328125 262.203125 C-152.6328125 260.553125 -152.6328125 258.903125 -152.6328125 257.203125 C-156.2628125 257.203125 -159.8928125 257.203125 -163.6328125 257.203125 Z M-138.6328125 257.203125 C-138.6328125 258.853125 -138.6328125 260.503125 -138.6328125 262.203125 C-135.0028125 262.203125 -131.3728125 262.203125 -127.6328125 262.203125 C-127.6328125 260.553125 -127.6328125 258.903125 -127.6328125 257.203125 C-131.2628125 257.203125 -134.8928125 257.203125 -138.6328125 257.203125 Z M-114.6328125 257.203125 C-114.6328125 258.853125 -114.6328125 260.503125 -114.6328125 262.203125 C-111.0028125 262.203125 -107.3728125 262.203125 -103.6328125 262.203125 C-103.6328125 260.553125 -103.6328125 258.903125 -103.6328125 257.203125 C-107.2628125 257.203125 -110.8928125 257.203125 -114.6328125 257.203125 Z M-89.6328125 257.203125 C-89.6328125 258.853125 -89.6328125 260.503125 -89.6328125 262.203125 C-86.0028125 262.203125 -82.3728125 262.203125 -78.6328125 262.203125 C-78.6328125 260.553125 -78.6328125 258.903125 -78.6328125 257.203125 C-82.2628125 257.203125 -85.8928125 257.203125 -89.6328125 257.203125 Z M-64.6328125 257.203125 C-64.6328125 258.853125 -64.6328125 260.503125 -64.6328125 262.203125 C-61.3328125 262.203125 -58.0328125 262.203125 -54.6328125 262.203125 C-54.6328125 260.553125 -54.6328125 258.903125 -54.6328125 257.203125 C-57.9328125 257.203125 -61.2328125 257.203125 -64.6328125 257.203125 Z M-40.6328125 257.203125 C-40.6328125 258.853125 -40.6328125 260.503125 -40.6328125 262.203125 C-37.3328125 262.203125 -34.0328125 262.203125 -30.6328125 262.203125 C-30.6328125 260.553125 -30.6328125 258.903125 -30.6328125 257.203125 C-33.9328125 257.203125 -37.2328125 257.203125 -40.6328125 257.203125 Z M-15.6328125 257.203125 C-15.6328125 258.853125 -15.6328125 260.503125 -15.6328125 262.203125 C-12.0028125 262.203125 -8.3728125 262.203125 -4.6328125 262.203125 C-4.6328125 260.553125 -4.6328125 258.903125 -4.6328125 257.203125 C-8.2628125 257.203125 -11.8928125 257.203125 -15.6328125 257.203125 Z M8.3671875 257.203125 C8.3671875 258.853125 8.3671875 260.503125 8.3671875 262.203125 C11.9971875 262.203125 15.6271875 262.203125 19.3671875 262.203125 C19.3671875 260.553125 19.3671875 258.903125 19.3671875 257.203125 C15.7371875 257.203125 12.1071875 257.203125 8.3671875 257.203125 Z M32.3671875 257.203125 C32.3671875 258.853125 32.3671875 260.503125 32.3671875 262.203125 C35.9971875 262.203125 39.6271875 262.203125 43.3671875 262.203125 C43.3671875 260.553125 43.3671875 258.903125 43.3671875 257.203125 C39.7371875 257.203125 36.1071875 257.203125 32.3671875 257.203125 Z M57.3671875 257.203125 C57.3671875 258.853125 57.3671875 260.503125 57.3671875 262.203125 C60.9971875 262.203125 64.6271875 262.203125 68.3671875 262.203125 C68.3671875 260.553125 68.3671875 258.903125 68.3671875 257.203125 C64.7371875 257.203125 61.1071875 257.203125 57.3671875 257.203125 Z M81.3671875 257.203125 C81.3671875 258.853125 81.3671875 260.503125 81.3671875 262.203125 C84.9971875 262.203125 88.6271875 262.203125 92.3671875 262.203125 C92.3671875 260.553125 92.3671875 258.903125 92.3671875 257.203125 C88.7371875 257.203125 85.1071875 257.203125 81.3671875 257.203125 Z M107.3671875 257.203125 C107.3671875 258.853125 107.3671875 260.503125 107.3671875 262.203125 C110.6671875 262.203125 113.9671875 262.203125 117.3671875 262.203125 C117.3671875 260.553125 117.3671875 258.903125 117.3671875 257.203125 C114.0671875 257.203125 110.7671875 257.203125 107.3671875 257.203125 Z M131.3671875 257.203125 C131.3671875 258.853125 131.3671875 260.503125 131.3671875 262.203125 C134.6671875 262.203125 137.9671875 262.203125 141.3671875 262.203125 C141.3671875 260.553125 141.3671875 258.903125 141.3671875 257.203125 C138.0671875 257.203125 134.7671875 257.203125 131.3671875 257.203125 Z M155.3671875 257.203125 C155.3671875 258.853125 155.3671875 260.503125 155.3671875 262.203125 C158.6671875 262.203125 161.9671875 262.203125 165.3671875 262.203125 C165.3671875 260.553125 165.3671875 258.903125 165.3671875 257.203125 C162.0671875 257.203125 158.7671875 257.203125 155.3671875 257.203125 Z M180.3671875 257.203125 C180.3671875 258.853125 180.3671875 260.503125 180.3671875 262.203125 C183.6671875 262.203125 186.9671875 262.203125 190.3671875 262.203125 C190.3671875 260.553125 190.3671875 258.903125 190.3671875 257.203125 C187.0671875 257.203125 183.7671875 257.203125 180.3671875 257.203125 Z M204.3671875 257.203125 C204.3671875 258.853125 204.3671875 260.503125 204.3671875 262.203125 C207.6671875 262.203125 210.9671875 262.203125 214.3671875 262.203125 C214.3671875 260.553125 214.3671875 258.903125 214.3671875 257.203125 C211.0671875 257.203125 207.7671875 257.203125 204.3671875 257.203125 Z M229.3671875 257.203125 C229.3671875 258.853125 229.3671875 260.503125 229.3671875 262.203125 C232.6671875 262.203125 235.9671875 262.203125 239.3671875 262.203125 C239.3671875 260.553125 239.3671875 258.903125 239.3671875 257.203125 C236.0671875 257.203125 232.7671875 257.203125 229.3671875 257.203125 Z M253.3671875 257.203125 C253.3671875 258.853125 253.3671875 260.503125 253.3671875 262.203125 C256.6671875 262.203125 259.9671875 262.203125 263.3671875 262.203125 C263.3671875 260.553125 263.3671875 258.903125 263.3671875 257.203125 C260.0671875 257.203125 256.7671875 257.203125 253.3671875 257.203125 Z M277.3671875 257.203125 C277.3671875 258.853125 277.3671875 260.503125 277.3671875 262.203125 C280.6671875 262.203125 283.9671875 262.203125 287.3671875 262.203125 C287.3671875 260.553125 287.3671875 258.903125 287.3671875 257.203125 C284.0671875 257.203125 280.7671875 257.203125 277.3671875 257.203125 Z " fill="#000000" transform="translate(276.6328125,1.796875)"/>
<path d="M0 0 C190.74 0 381.48 0 578 0 C578 13.50641458 578 13.50641458 577.37890625 18.0625 C577.24806641 19.04347656 577.11722656 20.02445312 576.98242188 21.03515625 C576.77456055 22.50275391 576.77456055 22.50275391 576.5625 24 C576.42779297 25.00933594 576.29308594 26.01867187 576.15429688 27.05859375 C574.88216224 36.40412913 574.88216224 36.40412913 574 39 C571.71484375 40.046875 571.71484375 40.046875 568.9375 40.75 C568.01839844 40.99234375 567.09929688 41.2346875 566.15234375 41.484375 C565.44207031 41.65453125 564.73179687 41.8246875 564 42 C564.33 43.32 564.66 44.64 565 46 C567.31 45.67 569.62 45.34 572 45 C573.07735006 48.23205018 572.92640423 49.33577435 572.1875 52.5625 C572.01605469 53.34753906 571.84460938 54.13257813 571.66796875 54.94140625 C571 57 571 57 569 59 C566.875 59.625 566.875 59.625 565 60 C564.67 61.32 564.34 62.64 564 64 C564.66 64 565.32 64 566 64 C565.43303372 70.55842073 563.81289645 76.30451242 561.625 82.5 C561.2748584 83.49539795 560.9247168 84.4907959 560.56396484 85.51635742 C543.0494735 134.03233356 511.25039971 180.58576117 470 212 C469.00097656 212.79277344 468.00195312 213.58554687 466.97265625 214.40234375 C422.51812501 249.55830413 363.95714307 274.17955328 306.8125 274.37109375 C305.3798008 274.3801137 303.94710224 274.38923594 302.5144043 274.39845276 C299.52260086 274.41481065 296.53090734 274.42261611 293.5390625 274.42553711 C290.54129966 274.4298017 287.54441424 274.45037449 284.546875 274.48706055 C256.02964409 274.82942784 229.39413255 271.42896386 202 263 C200.87440674 262.66645508 200.87440674 262.66645508 199.72607422 262.32617188 C162.10577473 251.13114604 126.11669368 230.6663243 97.25 204.06640625 C95.2655318 202.24386514 93.24214108 200.49216442 91.1875 198.75 C81.5370559 190.31074524 72.93316916 181.05860868 65 171 C64.09401591 169.9155645 63.18500096 168.83365602 62.2734375 167.75390625 C40.37366195 141.56803701 9 94.69205083 9 59 C9.639375 58.731875 10.27875 58.46375 10.9375 58.1875 C13.33131686 57.11332248 13.33131686 57.11332248 14 54 C10.535 54.495 10.535 54.495 7 55 C5.57499941 51.00999834 4.59924224 47.19469571 4 43 C4.56589844 42.74605469 5.13179688 42.49210937 5.71484375 42.23046875 C6.44832031 41.88628906 7.18179687 41.54210937 7.9375 41.1875 C8.66839844 40.85105469 9.39929688 40.51460938 10.15234375 40.16796875 C12.33029489 39.06399866 12.33029489 39.06399866 13 36 C8.05 36.495 8.05 36.495 3 37 C2.48479793 33.83518731 1.98788451 30.66905164 1.5 27.5 C1.35691406 26.63246094 1.21382813 25.76492188 1.06640625 24.87109375 C-0.22339157 16.33386056 0 8.93840265 0 0 Z M14 13 C14 14.65 14 16.3 14 18 C17.63 18 21.26 18 25 18 C25 16.35 25 14.7 25 13 C21.37 13 17.74 13 14 13 Z M38 13 C38 14.65 38 16.3 38 18 C41.63 18 45.26 18 49 18 C49 16.35 49 14.7 49 13 C45.37 13 41.74 13 38 13 Z M62 13 C62 14.65 62 16.3 62 18 C65.63 18 69.26 18 73 18 C73 16.35 73 14.7 73 13 C69.37 13 65.74 13 62 13 Z M87 13 C87 14.65 87 16.3 87 18 C90.63 18 94.26 18 98 18 C98 16.35 98 14.7 98 13 C94.37 13 90.74 13 87 13 Z M111 13 C111 14.65 111 16.3 111 18 C114.63 18 118.26 18 122 18 C122 16.35 122 14.7 122 13 C118.37 13 114.74 13 111 13 Z M136 13 C136 14.65 136 16.3 136 18 C139.63 18 143.26 18 147 18 C147 16.35 147 14.7 147 13 C143.37 13 139.74 13 136 13 Z M160 13 C160 14.65 160 16.3 160 18 C163.63 18 167.26 18 171 18 C171 16.35 171 14.7 171 13 C167.37 13 163.74 13 160 13 Z M184 13 C184 14.65 184 16.3 184 18 C187.63 18 191.26 18 195 18 C195 16.35 195 14.7 195 13 C191.37 13 187.74 13 184 13 Z M210 13 C210 14.65 210 16.3 210 18 C213.3 18 216.6 18 220 18 C220 16.35 220 14.7 220 13 C216.7 13 213.4 13 210 13 Z M234 13 C234 14.65 234 16.3 234 18 C237.3 18 240.6 18 244 18 C244 16.35 244 14.7 244 13 C240.7 13 237.4 13 234 13 Z M259 13 C259 14.65 259 16.3 259 18 C262.63 18 266.26 18 270 18 C270 16.35 270 14.7 270 13 C266.37 13 262.74 13 259 13 Z M283 13 C283 14.65 283 16.3 283 18 C286.63 18 290.26 18 294 18 C294 16.35 294 14.7 294 13 C290.37 13 286.74 13 283 13 Z M307 13 C307 14.65 307 16.3 307 18 C310.63 18 314.26 18 318 18 C318 16.35 318 14.7 318 13 C314.37 13 310.74 13 307 13 Z M332 13 C332 14.65 332 16.3 332 18 C335.63 18 339.26 18 343 18 C343 16.35 343 14.7 343 13 C339.37 13 335.74 13 332 13 Z M356 13 C356 14.65 356 16.3 356 18 C359.63 18 363.26 18 367 18 C367 16.35 367 14.7 367 13 C363.37 13 359.74 13 356 13 Z M380 13 C380 14.65 380 16.3 380 18 C383.63 18 387.26 18 391 18 C391 16.35 391 14.7 391 13 C387.37 13 383.74 13 380 13 Z M406 13 C406 14.65 406 16.3 406 18 C409.3 18 412.6 18 416 18 C416 16.35 416 14.7 416 13 C412.7 13 409.4 13 406 13 Z M430 13 C430 14.65 430 16.3 430 18 C433.3 18 436.6 18 440 18 C440 16.35 440 14.7 440 13 C436.7 13 433.4 13 430 13 Z M455 13 C455 14.65 455 16.3 455 18 C458.3 18 461.6 18 465 18 C465 16.35 465 14.7 465 13 C461.7 13 458.4 13 455 13 Z M479 13 C479 14.65 479 16.3 479 18 C482.3 18 485.6 18 489 18 C489 16.35 489 14.7 489 13 C485.7 13 482.4 13 479 13 Z M504 13 C504 14.65 504 16.3 504 18 C507.3 18 510.6 18 514 18 C514 16.35 514 14.7 514 13 C510.7 13 507.4 13 504 13 Z M528 13 C528 14.65 528 16.3 528 18 C531.3 18 534.6 18 538 18 C538 16.35 538 14.7 538 13 C534.7 13 531.4 13 528 13 Z M552 13 C552 14.65 552 16.3 552 18 C555.3 18 558.6 18 562 18 C562 16.35 562 14.7 562 13 C558.7 13 555.4 13 552 13 Z M36.25 38.3125 C35.48300781 38.52583984 34.71601562 38.73917969 33.92578125 38.95898438 C29.16975401 40.30991696 29.16975401 40.30991696 26 44 C26.99 44.99 27.98 45.98 29 47 C36.26 44.69 43.52 42.38 51 40 C51 38.68 51 37.36 51 36 C45.67984295 35.68655126 41.28578546 36.80521945 36.25 38.3125 Z M74.1875 38.25 C73.41212891 38.45496094 72.63675781 38.65992188 71.83789062 38.87109375 C69.33922917 39.54844974 69.33922917 39.54844974 66 41 C65.22210581 43.03083256 65.22210581 43.03083256 65 45 C67.72870326 47.32147545 67.72870326 47.32147545 70.26831055 46.58447266 C71.56442261 46.12886963 71.56442261 46.12886963 72.88671875 45.6640625 C73.82451172 45.34179688 74.76230469 45.01953125 75.72851562 44.6875 C76.70498047 44.336875 77.68144531 43.98625 78.6875 43.625 C79.67556641 43.28210938 80.66363281 42.93921875 81.68164062 42.5859375 C84.12555393 41.7358807 86.56440172 40.87353882 89 40 C89 38.68 89 37.36 89 36 C83.68190998 35.69465512 79.23618002 36.77800634 74.1875 38.25 Z M113.25 38.3125 C112.48300781 38.52583984 111.71601562 38.73917969 110.92578125 38.95898438 C106.16975401 40.30991696 106.16975401 40.30991696 103 44 C103.33 44.66 103.66 45.32 104 46 C111.61157637 45.48396092 122.41222706 44.58777294 128 39 C128 38.01 128 37.02 128 36 C122.67984295 35.68655126 118.28578546 36.80521945 113.25 38.3125 Z M151.25 38.375 C150.48300781 38.59671875 149.71601563 38.8184375 148.92578125 39.046875 C144.56181411 40.30148771 144.56181411 40.30148771 141 43 C141 43.99 141 44.98 141 46 C144.56635238 47.18878413 145.60379515 46.72013686 149.10546875 45.56640625 C150.08837891 45.24736328 151.07128906 44.92832031 152.08398438 44.59960938 C153.10814453 44.25736328 154.13230469 43.91511719 155.1875 43.5625 C156.74114258 43.05493164 156.74114258 43.05493164 158.32617188 42.53710938 C160.8868234 41.69929252 163.4444802 40.85331644 166 40 C166 38.68 166 37.36 166 36 C160.66234771 35.67702104 156.29064011 36.83600525 151.25 38.375 Z M190.3125 38.4375 C189.15524414 38.78264648 189.15524414 38.78264648 187.97460938 39.13476562 C183.9001999 40.3390457 183.9001999 40.3390457 180 42 C180.33 43.65 180.66 45.3 181 47 C184.63198314 46.10962437 188.25383968 45.183335 191.875 44.25 C192.90753906 43.99734375 193.94007813 43.7446875 195.00390625 43.484375 C195.99003906 43.2265625 196.97617188 42.96875 197.9921875 42.703125 C199.35899658 42.35749512 199.35899658 42.35749512 200.75341797 42.00488281 C203.16066097 41.17918078 203.16066097 41.17918078 204.31298828 38.89355469 C204.53970215 38.26868164 204.76641602 37.64380859 205 37 C203.99503268 35.78558697 203.99503268 35.78558697 201.98046875 35.78515625 C197.89191716 36.07987491 194.21729333 37.23526083 190.3125 38.4375 Z M228.25 38.375 C227.48300781 38.59671875 226.71601563 38.8184375 225.92578125 39.046875 C221.56181411 40.30148771 221.56181411 40.30148771 218 43 C218 43.99 218 44.98 218 46 C226.79246214 45.52897524 234.70615203 42.75783166 243 40 C243 38.68 243 37.36 243 36 C237.66234771 35.67702104 233.29064011 36.83600525 228.25 38.375 Z M265.1875 38.3125 C264.41212891 38.52583984 263.63675781 38.73917969 262.83789062 38.95898438 C260.85964268 39.53878583 258.92405855 40.25997748 257 41 C256.67 41.99 256.34 42.98 256 44 C256.99 44.99 257.98 45.98 259 47 C265.93 44.69 272.86 42.38 280 40 C280 38.68 280 37.36 280 36 C274.66487233 35.6851679 270.24095094 36.80895833 265.1875 38.3125 Z M304.1875 38.5 C303.00510742 38.85771484 303.00510742 38.85771484 301.79882812 39.22265625 C299.86401398 39.80896357 297.9317429 40.40365159 296 41 C295.67 42.65 295.34 44.3 295 46 C302.55030602 45.48811485 310.06463618 44.13434663 317 41 C318.4223743 38.99032312 318.4223743 38.99032312 319 37 C317.9958402 35.78699873 317.9958402 35.78699873 315.98828125 35.78125 C311.85376172 36.08390764 308.13380589 37.27608283 304.1875 38.5 Z M342.1875 38.25 C341.41212891 38.45496094 340.63675781 38.65992188 339.83789062 38.87109375 C337.33922917 39.54844974 337.33922917 39.54844974 334 41 C333.22210581 43.03083256 333.22210581 43.03083256 333 45 C335.72870326 47.32147545 335.72870326 47.32147545 338.26831055 46.58447266 C339.56442261 46.12886963 339.56442261 46.12886963 340.88671875 45.6640625 C341.82451172 45.34179688 342.76230469 45.01953125 343.72851562 44.6875 C344.70498047 44.336875 345.68144531 43.98625 346.6875 43.625 C347.67556641 43.28210938 348.66363281 42.93921875 349.68164062 42.5859375 C352.12555393 41.7358807 354.56440172 40.87353882 357 40 C357 38.68 357 37.36 357 36 C351.68190998 35.69465512 347.23618002 36.77800634 342.1875 38.25 Z M380.625 38.5 C379.88894531 38.73847656 379.15289062 38.97695313 378.39453125 39.22265625 C376.59380422 39.80730788 374.7965309 40.4025788 373 41 C372.67 42.65 372.34 44.3 372 46 C373.9688279 47.25424067 373.9688279 47.25424067 376.15478516 46.47094727 C377.02409668 46.17244873 377.8934082 45.8739502 378.7890625 45.56640625 C379.73007812 45.24736328 380.67109375 44.92832031 381.640625 44.59960938 C383.11789062 44.08624023 383.11789062 44.08624023 384.625 43.5625 C385.61757813 43.22412109 386.61015625 42.88574219 387.6328125 42.53710938 C390.09090448 41.69804913 392.54640157 40.85209309 395 40 C395 38.68 395 37.36 395 36 C389.7142452 35.66651389 385.56196375 36.84839368 380.625 38.5 Z M419.25 38.25 C418.48300781 38.45496094 417.71601563 38.65992188 416.92578125 38.87109375 C412.57198305 40.06942341 412.57198305 40.06942341 409.484375 43.171875 C409.32453125 43.77515625 409.1646875 44.3784375 409 45 C409.33 45.33 409.66 45.66 410 46 C417.40353106 45.56449817 428.66687032 44.33312968 434 39 C434 38.01 434 37.02 434 36 C428.69712699 35.69601365 424.28089042 36.7743872 419.25 38.25 Z M456.625 38.5 C455.88894531 38.73847656 455.15289062 38.97695313 454.39453125 39.22265625 C452.59380422 39.80730788 450.7965309 40.4025788 449 41 C448.67 42.65 448.34 44.3 448 46 C449.9688279 47.25424067 449.9688279 47.25424067 452.15478516 46.47094727 C453.02409668 46.17244873 453.8934082 45.8739502 454.7890625 45.56640625 C455.73007812 45.24736328 456.67109375 44.92832031 457.640625 44.59960938 C459.11789062 44.08624023 459.11789062 44.08624023 460.625 43.5625 C461.61757813 43.22412109 462.61015625 42.88574219 463.6328125 42.53710938 C466.09090448 41.69804913 468.54640157 40.85209309 471 40 C471 38.68 471 37.36 471 36 C465.7142452 35.66651389 461.56196375 36.84839368 456.625 38.5 Z M496.3125 38.4375 C495.15524414 38.78264648 495.15524414 38.78264648 493.97460938 39.13476562 C489.9001999 40.3390457 489.9001999 40.3390457 486 42 C486 43.32 486 44.64 486 46 C493.84180921 45.45918557 501.72139457 44.04483494 509 41 C510.46080488 38.99820205 510.46080488 38.99820205 511 37 C509.99503268 35.78558697 509.99503268 35.78558697 507.98046875 35.78515625 C503.89191716 36.07987491 500.21729333 37.23526083 496.3125 38.4375 Z M533.1875 38.25 C532.41212891 38.45496094 531.63675781 38.65992188 530.83789062 38.87109375 C528.33922917 39.54844974 528.33922917 39.54844974 525 41 C524.13157811 42.97722104 524.13157811 42.97722104 524 45 C524.33 45.33 524.66 45.66 525 46 C532.25430452 45.58148243 542.74958817 44.25041183 548 39 C548 38.01 548 37.02 548 36 C542.68190998 35.69465512 538.23618002 36.77800634 533.1875 38.25 Z M45.2109375 53.3125 C44.26992188 53.58320313 43.32890625 53.85390625 42.359375 54.1328125 C41.37453125 54.41898437 40.3896875 54.70515625 39.375 55 C38.38242187 55.28617187 37.38984375 55.57234375 36.3671875 55.8671875 C33.91076749 56.5757702 31.45508419 57.28680531 29 58 C28.40929986 59.94603274 28.40929986 59.94603274 28 62 C28.33 62.33 28.66 62.66 29 63 C36.40353106 62.56449817 47.66687032 61.33312968 53 56 C52.6814823 53.89179203 52.6814823 53.89179203 52 52 C49.53643173 52 47.58086968 52.62721841 45.2109375 53.3125 Z M82.11328125 53.21484375 C81.17548828 53.48876953 80.23769531 53.76269531 79.27148438 54.04492188 C78.29501953 54.33947266 77.31855469 54.63402344 76.3125 54.9375 C75.32443359 55.22818359 74.33636719 55.51886719 73.31835938 55.81835938 C70.8765304 56.53793217 68.43734518 57.26540993 66 58 C65.40929986 59.94603274 65.40929986 59.94603274 65 62 C65.33 62.33 65.66 62.66 66 63 C71.80415808 62.54414245 76.98902186 61.25918444 82.5 59.4375 C83.22703125 59.20353516 83.9540625 58.96957031 84.703125 58.72851562 C86.47080261 58.15867219 88.23570969 57.58024596 90 57 C90 55.68 90 54.36 90 53 C86.54115996 51.84705332 85.52872276 52.20056112 82.11328125 53.21484375 Z M159.2109375 53.3125 C158.26992187 53.58320313 157.32890625 53.85390625 156.359375 54.1328125 C155.37453125 54.41898437 154.3896875 54.70515625 153.375 55 C152.38242188 55.28617187 151.38984375 55.57234375 150.3671875 55.8671875 C147.91076749 56.5757702 145.45508419 57.28680531 143 58 C142.40929986 59.94603274 142.40929986 59.94603274 142 62 C142.33 62.33 142.66 62.66 143 63 C148.80415808 62.54414245 153.98902186 61.25918444 159.5 59.4375 C160.22703125 59.20353516 160.9540625 58.96957031 161.703125 58.72851562 C163.47080261 58.15867219 165.23570969 57.58024596 167 57 C166.67 55.35 166.34 53.7 166 52 C163.53643173 52 161.58086968 52.62721841 159.2109375 53.3125 Z M197.234375 53.21484375 C196.34492188 53.48876953 195.45546875 53.76269531 194.5390625 54.04492188 C193.61867187 54.33947266 192.69828125 54.63402344 191.75 54.9375 C190.34621094 55.37352539 190.34621094 55.37352539 188.9140625 55.81835938 C186.6063855 56.53656497 184.30206318 57.26403738 182 58 C181.67 59.65 181.34 61.3 181 63 C186.70393396 62.41613274 191.95950158 61.36714723 197.4375 59.6875 C198.51547852 59.38682617 198.51547852 59.38682617 199.61523438 59.08007812 C201.93030784 58.41755615 201.93030784 58.41755615 205 57 C206.09174698 54.94939773 206.09174698 54.94939773 206 53 C202.6252898 51.85815528 200.60566936 52.15591155 197.234375 53.21484375 Z M236.2109375 53.3125 C235.26992187 53.58320313 234.32890625 53.85390625 233.359375 54.1328125 C232.37453125 54.41898437 231.3896875 54.70515625 230.375 55 C229.38242188 55.28617187 228.38984375 55.57234375 227.3671875 55.8671875 C224.91076749 56.5757702 222.45508419 57.28680531 220 58 C219.67 59.32 219.34 60.64 219 62 C223.98577323 63.63875017 227.81805461 62.20094953 232.625 60.6875 C233.388125 60.46126953 234.15125 60.23503906 234.9375 60.00195312 C238.4084122 58.94545617 240.94006623 58.03995584 244 56 C243.67 54.68 243.34 53.36 243 52 C240.53643173 52 238.58086968 52.62721841 236.2109375 53.3125 Z M274.234375 53.1171875 C273.34492188 53.39433594 272.45546875 53.67148437 271.5390625 53.95703125 C270.61867188 54.25996094 269.69828125 54.56289063 268.75 54.875 C267.81414062 55.17019531 266.87828125 55.46539062 265.9140625 55.76953125 C263.60486238 56.49999251 261.30087926 57.24381571 259 58 C258.67 59.65 258.34 61.3 258 63 C263.72284508 62.42063436 268.953316 61.34232137 274.4375 59.625 C275.51547852 59.31175781 275.51547852 59.31175781 276.61523438 58.9921875 C278.9195501 58.31116902 278.9195501 58.31116902 282 57 C282.33 56.01 282.66 55.02 283 54 C279.63267363 51.88358804 277.9817041 51.91612048 274.234375 53.1171875 Z M313.11328125 53.21484375 C312.17548828 53.48876953 311.23769531 53.76269531 310.27148438 54.04492188 C309.29501953 54.33947266 308.31855469 54.63402344 307.3125 54.9375 C306.32443359 55.22818359 305.33636719 55.51886719 304.31835938 55.81835938 C301.8765304 56.53793217 299.43734518 57.26540993 297 58 C296.67 59.32 296.34 60.64 296 62 C301.23856164 63.85081413 305.70191177 61.93591068 310.75 60.3125 C311.62527344 60.05533203 312.50054687 59.79816406 313.40234375 59.53320312 C314.23378906 59.27087891 315.06523437 59.00855469 315.921875 58.73828125 C316.68081055 58.50149658 317.43974609 58.26471191 318.22167969 58.02075195 C320.20855731 57.13591959 320.20855731 57.13591959 320.75488281 54.89135742 C320.83577148 54.26720947 320.91666016 53.64306152 321 53 C317.54115996 51.84705332 316.52872276 52.20056112 313.11328125 53.21484375 Z M350.2109375 53.3125 C349.26992188 53.58320313 348.32890625 53.85390625 347.359375 54.1328125 C346.37453125 54.41898437 345.3896875 54.70515625 344.375 55 C343.38242187 55.28617187 342.38984375 55.57234375 341.3671875 55.8671875 C338.91076749 56.5757702 336.45508419 57.28680531 334 58 C334 59.65 334 61.3 334 63 C339.79859195 62.43189471 344.97686594 61.26320265 350.5 59.4375 C351.22703125 59.20353516 351.9540625 58.96957031 352.703125 58.72851562 C354.47080261 58.15867219 356.23570969 57.58024596 358 57 C357.67 55.35 357.34 53.7 357 52 C354.53643173 52 352.58086968 52.62721841 350.2109375 53.3125 Z M388.33203125 53.21484375 C387.43935547 53.48876953 386.54667969 53.76269531 385.62695312 54.04492188 C384.69818359 54.33947266 383.76941406 54.63402344 382.8125 54.9375 C381.87212891 55.22818359 380.93175781 55.51886719 379.96289062 55.81835938 C377.63939029 56.53781887 375.31871482 57.26529186 373 58 C372.67 59.65 372.34 61.3 372 63 C377.79859195 62.43189471 382.97686594 61.26320265 388.5 59.4375 C389.22703125 59.20353516 389.9540625 58.96957031 390.703125 58.72851562 C392.47080261 58.15867219 394.23570969 57.58024596 396 57 C396 55.68 396 54.36 396 53 C392.57469763 51.85823254 391.68326326 52.16891784 388.33203125 53.21484375 Z M427.11328125 53.21484375 C426.17548828 53.48876953 425.23769531 53.76269531 424.27148438 54.04492188 C423.29501953 54.33947266 422.31855469 54.63402344 421.3125 54.9375 C420.32443359 55.22818359 419.33636719 55.51886719 418.31835938 55.81835938 C415.8765304 56.53793217 413.43734518 57.26540993 411 58 C411 59.65 411 61.3 411 63 C416.55200966 62.66008104 421.64325776 61.35682173 426.9375 59.6875 C427.61240479 59.48680908 428.28730957 59.28611816 428.98266602 59.0793457 C431.13888599 58.41415355 431.13888599 58.41415355 434 57 C435.0504933 54.94553755 435.0504933 54.94553755 435 53 C431.54115996 51.84705332 430.52872276 52.20056112 427.11328125 53.21484375 Z M465.4296875 53.3125 C464.53378906 53.58320313 463.63789063 53.85390625 462.71484375 54.1328125 C461.77769531 54.41898437 460.84054687 54.70515625 459.875 55 C458.93011719 55.28617187 457.98523438 55.57234375 457.01171875 55.8671875 C454.67372229 56.57567128 452.3365335 57.28670913 450 58 C449.67 59.65 449.34 61.3 449 63 C456.46590154 62.40272788 467.58887441 61.41112559 473 56 C472.6814823 53.89179203 472.6814823 53.89179203 472 52 C469.58773692 52 467.74083573 52.61037902 465.4296875 53.3125 Z M504.11328125 53.21484375 C503.17548828 53.48876953 502.23769531 53.76269531 501.27148438 54.04492188 C500.29501953 54.33947266 499.31855469 54.63402344 498.3125 54.9375 C497.32443359 55.22818359 496.33636719 55.51886719 495.31835938 55.81835938 C492.8765304 56.53793217 490.43734518 57.26540993 488 58 C487.67 59.32 487.34 60.64 487 62 C492.23856164 63.85081413 496.70191177 61.93591068 501.75 60.3125 C502.62527344 60.05533203 503.50054687 59.79816406 504.40234375 59.53320312 C505.23378906 59.27087891 506.06523437 59.00855469 506.921875 58.73828125 C507.68081055 58.50149658 508.43974609 58.26471191 509.22167969 58.02075195 C511.20855731 57.13591959 511.20855731 57.13591959 511.75488281 54.89135742 C511.83577148 54.26720947 511.91666016 53.64306152 512 53 C508.54115996 51.84705332 507.52872276 52.20056112 504.11328125 53.21484375 Z M114.125 57 C113.24585937 57.28617187 112.36671875 57.57234375 111.4609375 57.8671875 C109.30460124 58.57034063 107.15123899 59.28143394 105 60 C105 61.32 105 62.64 105 64 C109.90089631 65.6336321 113.95458225 63.0587029 118.625 61.25 C119.6046875 60.8890625 120.584375 60.528125 121.59375 60.15625 C122.52445313 59.80046875 123.45515625 59.4446875 124.4140625 59.078125 C125.2695166 58.75231445 126.1249707 58.42650391 127.00634766 58.09082031 C129.34258776 57.10634361 129.34258776 57.10634361 130 54 C124.23352917 53.54624492 119.51213964 55.19887801 114.125 57 Z M535.125 56.5 C534.34125 56.73847656 533.5575 56.97695313 532.75 57.22265625 C530.83106 57.80769893 528.91520146 58.40283251 527 59 C526.67 60.65 526.34 62.3 526 64 C527.93536475 65.24137294 527.93536475 65.24137294 529.92358398 64.50268555 C530.69001221 64.2169165 531.45644043 63.93114746 532.24609375 63.63671875 C533.08333984 63.32669922 533.92058594 63.01667969 534.78320312 62.69726562 C535.65912109 62.36404297 536.53503906 62.03082031 537.4375 61.6875 C538.30955078 61.36587891 539.18160156 61.04425781 540.08007812 60.71289062 C543.69313964 59.36042256 546.772281 58.15181267 550 56 C550 55.34 550 54.68 550 54 C544.59823772 53.65483947 540.20981356 54.90560931 535.125 56.5 Z " fill="#000000" transform="translate(2,303)"/>
</svg>
